<?xml version="1.0" encoding="utf-8"?>
<!-- Generator: Adobe Illustrator 23.0.6, SVG Export Plug-In . SVG Version: 6.00 Build 0)  -->
<svg version="1.1" id="Capa_1" xmlns="http://www.w3.org/2000/svg" xmlns:xlink="http://www.w3.org/1999/xlink" x="0px" y="0px"
	 viewBox="0 0 512 512" style="enable-background:new 0 0 512 512;" xml:space="preserve">
<style type="text/css">
	.st0{fill:#FFC255;}
	.st1{fill:#B3DBFF;}
	.st2{fill:#38E034;}
</style>
<path class="st0" d="M271,181.7v40.5h-6.1c-35.6,0-64.5,28.9-64.5,64.5v29.5h-73.8v33.2c0,9.6-11.9,13.9-18.1,6.7l-34.1-39.9
	c-35.6,0-64.5-28.9-64.5-64.5v-70c0-35.6,28.9-64.5,64.5-64.5h132C242.2,117.2,271,146.1,271,181.7L271,181.7z"/>
<path class="st1" d="M349.7,222.2h-84.8c-35.6,0-64.5,28.9-64.5,64.5v70c0,35.6,28.9,64.5,64.5,64.5h15.6v46
	c0,9.6,11.9,13.9,18.1,6.7l45-52.7h93.9c35.6,0,64.5-28.9,64.5-64.5v-70c0-35.6-28.8-64.4-64.4-64.5L349.7,222.2z"/>
<path class="st2" d="M348.5,172.2V99.4h-37.6l62.9-64.8l61.8,64.8h-36.1v72.8H348.5z"/>
<path d="M437.7,212.2C437.7,212.2,437.7,212.2,437.7,212.2c-5.5,0-10,4.5-10,10c0,5.5,4.5,10,10,10c30,0.1,54.4,24.5,54.4,54.5v70
	c0,30.1-24.5,54.5-54.5,54.5h-93.9c-2.9,0-5.7,1.3-7.6,3.5l-45,52.7c-0.1,0.1-0.1,0.1-0.1,0.1c-0.1,0-0.3-0.1-0.4-0.1
	c0,0,0-0.1,0-0.2v-46c0-5.5-4.5-10-10-10h-15.6c-30.1,0-54.5-24.5-54.5-54.5v-40.5c0,0,0,0,0,0v-29.5c0-30.1,24.4-54.5,54.5-54.5
	h6.1c0,0,0,0,0.1,0h78.6c5.5,0,10-4.5,10-10s-4.5-10-10-10H281v-30.5c0-41.1-33.4-74.5-74.5-74.5h-132C33.4,107.2,0,140.6,0,181.7
	v70c0,39.5,30.9,71.9,69.8,74.4l31.2,36.5c4,4.6,9.5,7.1,15.3,7.1c2.4,0,4.8-0.4,7.1-1.3c8.1-3,13.3-10.4,13.3-19v-23.2h53.8v30.5
	c0,41.1,33.4,74.5,74.5,74.5h5.6v36c0,8.6,5.2,16.1,13.3,19c7.9,2.9,16.9,0.6,22.4-5.9l42-49.2h89.3c41.1,0,74.5-33.4,74.5-74.5v-70
	C512,245.7,478.7,212.3,437.7,212.2L437.7,212.2z M126.7,306.2c-5.5,0-10,4.5-10,10v33.2c0,0.1,0,0.2,0,0.2
	c-0.1,0.1-0.3,0.2-0.4,0.2c0,0,0,0-0.1-0.1l-34.1-39.9c-1.9-2.2-4.7-3.5-7.6-3.5c-30.1,0-54.5-24.5-54.5-54.5v-70
	c0-30.1,24.5-54.5,54.5-54.5h132c30.1,0,54.5,24.4,54.5,54.5v30.6c-30,1.6-57.1,22-66.7,50.6c-2.6,7.7-3.9,15.7-3.9,23.9v19.5
	L126.7,306.2z"/>
<path d="M350.5,286.5h10.9c3.1,0,5.6,2.5,5.6,5.6c0,5.5,4.5,10,10,10s10-4.5,10-10c0-12.6-9.1-23-21-25.2v-3.2c0-5.5-4.5-10-10-10
	s-10,4.5-10,10v3.2c-12,2.2-21,12.6-21,25.2v11.6c0,14.1,11.5,25.6,25.6,25.6h10.9c3.1,0,5.6,2.5,5.6,5.6V346c0,3.1-2.5,5.6-5.6,5.6
	h-10.9c-3.1,0-5.6-2.5-5.6-5.6c0-5.5-4.5-10-10-10s-10,4.5-10,10c0,12.6,9.1,23,21,25.2v3.2c0,5.5,4.5,10,10,10s10-4.5,10-10v-3.2
	c12-2.2,21-12.6,21-25.2v-11.1c0-14.1-11.5-25.6-25.6-25.6h-10.9c-3.1,0-5.6-2.5-5.6-5.6v-11.6C344.9,289,347.4,286.5,350.5,286.5z"
	/>
<path d="M134.1,182.2H145c3.1,0,5.6,2.5,5.6,5.6c0,5.5,4.5,10,10,10s10-4.5,10-10c0-12.6-9.1-23-21-25.2v-3.2c0-5.5-4.5-10-10-10
	s-10,4.5-10,10v3.2c-12,2.2-21,12.6-21,25.2v11.6c0,14.1,11.5,25.6,25.6,25.6H145c3.1,0,5.6,2.5,5.6,5.6v11.1c0,3.1-2.5,5.6-5.6,5.6
	h-10.9c-3.1,0-5.6-2.5-5.6-5.6c0-5.5-4.5-10-10-10s-10,4.5-10,10c0,12.6,9.1,23,21,25.2v3.2c0,5.5,4.5,10,10,10s10-4.5,10-10v-3.2
	c12-2.2,21-12.6,21-25.2v-11.1c0-14.1-11.5-25.6-25.6-25.6h-10.9c-3.1,0-5.6-2.5-5.6-5.6v-11.6C128.5,184.7,131,182.2,134.1,182.2
	L134.1,182.2z"/>
<path d="M390.2,231.4c5,2.1,11-0.4,13.1-5.4c2.1-5-0.4-11-5.4-13.1c-5-2.1-11,0.4-13.1,5.4C382.7,223.4,385.2,229.3,390.2,231.4z"/>
<path d="M310.9,109.4h27.6v62.8c0,5.5,4.5,10,10,10h51c5.5,0,10-4.5,10-10v-62.8h26.1c4,0,7.6-2.4,9.2-6.1c1.6-3.7,0.8-7.9-2-10.8
	L381,27.6c-1.9-2-4.5-3.1-7.2-3.1c0,0,0,0,0,0c-2.7,0-5.3,1.1-7.2,3l-62.9,64.8c-2.8,2.9-3.6,7.2-2,10.9
	C303.2,107,306.9,109.4,310.9,109.4L310.9,109.4z M373.7,49l38.5,40.4h-12.7c-5.5,0-10,4.5-10,10v62.8h-31V99.4c0-5.5-4.5-10-10-10
	h-14L373.7,49z"/>
</svg>
